<mxfile host="app.diagrams.net" modified="2023-10-12T07:49:01.898Z" agent="Mozilla/5.0 (Windows NT 10.0; Win64; x64) AppleWebKit/537.36 (KHTML, like Gecko) Chrome/116.0.5845.967 YaBrowser/23.9.1.967 Yowser/2.5 Safari/537.36" version="21.4.0" etag="xolHThwMxT-ft12V-Dww" type="github">
  <diagram name="Страница 1" id="EBeNX5Adb61Ka-d0SpHC">
    <mxGraphModel>
      <root>
        <mxCell id="0" />
        <mxCell id="1" parent="0" />
      </root>
    </mxGraphModel>
  </diagram>
</mxfile>
